<mxfile host="65bd71144e">
    <diagram name="Page-1" id="_iXNkQXKJSDpI1TCn4Rz">
        <mxGraphModel dx="1177" dy="736" grid="1" gridSize="10" guides="1" tooltips="1" connect="1" arrows="1" fold="1" page="1" pageScale="1" pageWidth="850" pageHeight="1100" math="0" shadow="0">
            <root>
                <mxCell id="0"/>
                <mxCell id="1" parent="0"/>
                <mxCell id="s0QmRArb7HIhSVUQ_1AF-5" value="" style="edgeStyle=orthogonalEdgeStyle;rounded=0;orthogonalLoop=1;jettySize=auto;html=1;" parent="1" source="s0QmRArb7HIhSVUQ_1AF-1" target="s0QmRArb7HIhSVUQ_1AF-4" edge="1">
                    <mxGeometry relative="1" as="geometry">
                        <Array as="points">
                            <mxPoint x="170" y="240"/>
                            <mxPoint x="170" y="240"/>
                        </Array>
                    </mxGeometry>
                </mxCell>
                <mxCell id="3" value="GET /answer" style="edgeLabel;html=1;align=center;verticalAlign=middle;resizable=0;points=[];" parent="s0QmRArb7HIhSVUQ_1AF-5" vertex="1" connectable="0">
                    <mxGeometry x="-0.0463" relative="1" as="geometry">
                        <mxPoint as="offset"/>
                    </mxGeometry>
                </mxCell>
                <mxCell id="s0QmRArb7HIhSVUQ_1AF-1" value="User Prompt&lt;div&gt;&lt;br&gt;&lt;/div&gt;" style="shape=umlActor;verticalLabelPosition=bottom;verticalAlign=top;html=1;outlineConnect=0;" parent="1" vertex="1">
                    <mxGeometry x="40" y="170" width="100" height="140" as="geometry"/>
                </mxCell>
                <mxCell id="s0QmRArb7HIhSVUQ_1AF-11" value="" style="edgeStyle=orthogonalEdgeStyle;rounded=0;orthogonalLoop=1;jettySize=auto;html=1;" parent="1" source="s0QmRArb7HIhSVUQ_1AF-4" target="s0QmRArb7HIhSVUQ_1AF-10" edge="1">
                    <mxGeometry relative="1" as="geometry"/>
                </mxCell>
                <mxCell id="s0QmRArb7HIhSVUQ_1AF-16" value="Publishes" style="edgeLabel;html=1;align=center;verticalAlign=middle;resizable=0;points=[];" parent="s0QmRArb7HIhSVUQ_1AF-11" vertex="1" connectable="0">
                    <mxGeometry x="-0.1053" y="1" relative="1" as="geometry">
                        <mxPoint x="1" as="offset"/>
                    </mxGeometry>
                </mxCell>
                <mxCell id="2" style="edgeStyle=none;html=1;" parent="1" source="s0QmRArb7HIhSVUQ_1AF-4" edge="1">
                    <mxGeometry relative="1" as="geometry">
                        <mxPoint x="150" y="310" as="targetPoint"/>
                    </mxGeometry>
                </mxCell>
                <mxCell id="4" value="HTTP 202&amp;nbsp;&lt;div&gt;ACCEPTED&lt;/div&gt;" style="edgeLabel;html=1;align=center;verticalAlign=middle;resizable=0;points=[];" parent="2" vertex="1" connectable="0">
                    <mxGeometry x="-0.0432" y="1" relative="1" as="geometry">
                        <mxPoint as="offset"/>
                    </mxGeometry>
                </mxCell>
                <mxCell id="s0QmRArb7HIhSVUQ_1AF-4" value="Backend&amp;nbsp;&lt;div&gt;Server&lt;/div&gt;" style="rounded=0;whiteSpace=wrap;html=1;fillColor=#fff2cc;strokeColor=#d6b656;" parent="1" vertex="1">
                    <mxGeometry x="310" y="200" width="150" height="80" as="geometry"/>
                </mxCell>
                <mxCell id="s0QmRArb7HIhSVUQ_1AF-6" value="OpenAI" style="ellipse;whiteSpace=wrap;html=1;fillColor=#d5e8d4;strokeColor=#82b366;rounded=0;" parent="1" vertex="1">
                    <mxGeometry x="370" y="360" width="80" height="80" as="geometry"/>
                </mxCell>
                <mxCell id="s0QmRArb7HIhSVUQ_1AF-10" value="Kafka Topic&lt;div&gt;&quot;async_user_prompt&quot;&lt;/div&gt;" style="shape=process;whiteSpace=wrap;html=1;backgroundOutline=1;fillColor=#f8cecc;strokeColor=#b85450;rounded=0;" parent="1" vertex="1">
                    <mxGeometry x="540" y="210" width="165" height="60" as="geometry"/>
                </mxCell>
                <mxCell id="s0QmRArb7HIhSVUQ_1AF-14" value="" style="edgeStyle=orthogonalEdgeStyle;rounded=0;orthogonalLoop=1;jettySize=auto;html=1;" parent="1" target="s0QmRArb7HIhSVUQ_1AF-10" edge="1">
                    <mxGeometry relative="1" as="geometry">
                        <mxPoint x="622.5" y="370" as="sourcePoint"/>
                    </mxGeometry>
                </mxCell>
                <mxCell id="s0QmRArb7HIhSVUQ_1AF-15" value="Polling" style="edgeLabel;html=1;align=center;verticalAlign=middle;resizable=0;points=[];" parent="s0QmRArb7HIhSVUQ_1AF-14" vertex="1" connectable="0">
                    <mxGeometry x="-0.1375" y="1" relative="1" as="geometry">
                        <mxPoint x="1" as="offset"/>
                    </mxGeometry>
                </mxCell>
                <mxCell id="s0QmRArb7HIhSVUQ_1AF-20" value="&lt;font style=&quot;font-size: 24px;&quot;&gt;Kafka LLM Processing&lt;/font&gt;" style="text;html=1;align=center;verticalAlign=middle;whiteSpace=wrap;rounded=0;" parent="1" vertex="1">
                    <mxGeometry x="460" y="30" width="270" height="80" as="geometry"/>
                </mxCell>
                <mxCell id="20" style="edgeStyle=none;html=1;entryX=0.5;entryY=1;entryDx=0;entryDy=0;" parent="1" source="6" target="11" edge="1">
                    <mxGeometry relative="1" as="geometry"/>
                </mxCell>
                <mxCell id="21" value="Polling" style="edgeLabel;html=1;align=center;verticalAlign=middle;resizable=0;points=[];" parent="20" vertex="1" connectable="0">
                    <mxGeometry x="0.163" y="1" relative="1" as="geometry">
                        <mxPoint as="offset"/>
                    </mxGeometry>
                </mxCell>
                <mxCell id="6" value="Interested Parties" style="whiteSpace=wrap;html=1;aspect=fixed;fillColor=#dae8fc;strokeColor=#6c8ebf;" parent="1" vertex="1">
                    <mxGeometry x="577.5" y="660" width="90" height="90" as="geometry"/>
                </mxCell>
                <mxCell id="9" style="edgeStyle=none;html=1;entryX=1;entryY=0.5;entryDx=0;entryDy=0;" parent="1" source="8" target="s0QmRArb7HIhSVUQ_1AF-6" edge="1">
                    <mxGeometry relative="1" as="geometry"/>
                </mxCell>
                <mxCell id="10" value="Gets response" style="edgeLabel;html=1;align=center;verticalAlign=middle;resizable=0;points=[];" parent="9" vertex="1" connectable="0">
                    <mxGeometry x="0.0827" y="3" relative="1" as="geometry">
                        <mxPoint x="9" y="-3" as="offset"/>
                    </mxGeometry>
                </mxCell>
                <mxCell id="16" style="edgeStyle=none;html=1;entryX=0.5;entryY=0;entryDx=0;entryDy=0;" parent="1" source="8" target="11" edge="1">
                    <mxGeometry relative="1" as="geometry"/>
                </mxCell>
                <mxCell id="17" value="Publishes" style="edgeLabel;html=1;align=center;verticalAlign=middle;resizable=0;points=[];" parent="16" vertex="1" connectable="0">
                    <mxGeometry x="-0.0463" y="-2" relative="1" as="geometry">
                        <mxPoint as="offset"/>
                    </mxGeometry>
                </mxCell>
                <mxCell id="28" style="edgeStyle=none;html=1;" edge="1" parent="1" source="8" target="27">
                    <mxGeometry relative="1" as="geometry"/>
                </mxCell>
                <mxCell id="29" value="Stores&lt;div&gt;Response&lt;/div&gt;" style="edgeLabel;html=1;align=center;verticalAlign=middle;resizable=0;points=[];" vertex="1" connectable="0" parent="28">
                    <mxGeometry x="-0.0818" relative="1" as="geometry">
                        <mxPoint as="offset"/>
                    </mxGeometry>
                </mxCell>
                <mxCell id="8" value="Kafka&lt;div&gt;Consumer&lt;/div&gt;" style="whiteSpace=wrap;html=1;aspect=fixed;fillColor=#dae8fc;strokeColor=#6c8ebf;" parent="1" vertex="1">
                    <mxGeometry x="582.5" y="360" width="80" height="80" as="geometry"/>
                </mxCell>
                <mxCell id="11" value="Kafka Topic&lt;div&gt;&quot;async_llm_response&quot;&lt;/div&gt;" style="shape=process;whiteSpace=wrap;html=1;backgroundOutline=1;fillColor=#f8cecc;strokeColor=#b85450;rounded=0;" parent="1" vertex="1">
                    <mxGeometry x="540" y="510" width="165" height="60" as="geometry"/>
                </mxCell>
                <mxCell id="27" value="Redis" style="shape=cylinder3;whiteSpace=wrap;html=1;boundedLbl=1;backgroundOutline=1;size=15;fillColor=#66B2FF;" vertex="1" parent="1">
                    <mxGeometry x="750" y="360" width="60" height="80" as="geometry"/>
                </mxCell>
                <mxCell id="33" style="edgeStyle=none;html=1;" edge="1" parent="1" source="30">
                    <mxGeometry relative="1" as="geometry">
                        <mxPoint x="620" y="570" as="targetPoint"/>
                    </mxGeometry>
                </mxCell>
                <mxCell id="30" value="Interested Parties" style="whiteSpace=wrap;html=1;aspect=fixed;fillColor=#dae8fc;strokeColor=#6c8ebf;" vertex="1" parent="1">
                    <mxGeometry x="680" y="660" width="90" height="90" as="geometry"/>
                </mxCell>
                <mxCell id="32" style="edgeStyle=none;html=1;entryX=0.5;entryY=1;entryDx=0;entryDy=0;" edge="1" parent="1" source="31" target="11">
                    <mxGeometry relative="1" as="geometry"/>
                </mxCell>
                <mxCell id="31" value="Interested Parties" style="whiteSpace=wrap;html=1;aspect=fixed;fillColor=#dae8fc;strokeColor=#6c8ebf;" vertex="1" parent="1">
                    <mxGeometry x="470" y="660" width="90" height="90" as="geometry"/>
                </mxCell>
            </root>
        </mxGraphModel>
    </diagram>
</mxfile>